# xmcd
#
# Track frame offsets:
#	187
#	17100
#	31400
#	45732
#	59180
#	69735
#	87762
#	101795
#	119492
#	136300
#
# Disc length: 2021 seconds
#
# Revision: 2
# Processed by: cddbd v1.5.2PL0 Copyright (c) Steve Scherf et al.
# Submitted via: audiograbber 1.83.01
#
DISCID=9207e30a
DTITLE=Poco - Cowboys and Englishmen
DYEAR=1982
DGENRE=Country Rock
TTITLE0=Sea of Heartbreak
TTITLE1=No Relief In Sight
TTITLE2=There Goes My Heart
TTITLE3=Ashes
TTITLE4=Feudin'
TTITLE5=Cajun Moon
TTITLE6=Ribbon of Darkness
TTITLE7=If You Could Read My Mind
TTITLE8=While You're On Your Way
TTITLE9=The Price of Love
EXTD=
EXTT0=
EXTT1=
EXTT2=
EXTT3=
EXTT4=
EXTT5=
EXTT6=
EXTT7=
EXTT8=
EXTT9=
PLAYORDER=
